<?xml version="1.0" standalone="no"?>
<!DOCTYPE svg PUBLIC "-//W3C//DTD SVG 1.1//EN" "http://www.w3.org/Graphics/SVG/1.1/DTD/svg11.dtd">
<svg viewBox="-50 -50 100 100" xmlns="http://www.w3.org/2000/svg" version="1.1">
<title>OpenSCAD Model</title>
<path d="
M 0.276443,43.9991 L 0.552902,43.9965 L 0.82933,43.9922 L 1.10571,43.9861 L 1.38206,43.9783 L 1.65836,43.9687
 L 1.93459,43.9574 L 2.21074,43.9444 L 2.4868,43.9297 L 2.76277,43.9132 L 3.03864,43.8949 L 3.31438,43.875
 L 3.58998,43.8533 L 3.86545,43.8299 L 4.14076,43.8047 L 4.41591,43.7778 L 4.69089,43.7492 L 4.96567,43.7189
 L 5.24026,43.6868 L 5.51465,43.653 L 5.78882,43.6175 L 6.06276,43.5803 L 6.33647,43.5413 L 6.60992,43.5007
 L 6.8831,43.4583 L 7.15602,43.4142 L 7.42867,43.3683 L 7.701,43.3208 L 7.97305,43.2716 L 8.24477,43.2206
 L 8.51617,43.168 L 8.78723,43.1136 L 9.05795,43.0576 L 9.32831,42.9998 L 9.5983,42.9403 L 9.8679,42.8792
 L 10.1371,42.8163 L 10.4059,42.7518 L 10.6744,42.6856 L 10.9424,42.6176 L 11.2099,42.5481 L 11.477,42.4768
 L 11.7437,42.4038 L 12.0099,42.3292 L 12.2756,42.2529 L 12.5408,42.175 L 12.8056,42.0953 L 13.0698,42.014
 L 13.3335,41.9311 L 13.5967,41.8465 L 13.8594,41.7602 L 14.1215,41.6723 L 14.3831,41.5828 L 14.6441,41.4916
 L 14.9045,41.3987 L 15.1643,41.3043 L 15.4235,41.2082 L 15.6821,41.1105 L 15.9401,41.0111 L 16.1975,40.9102
 L 16.4542,40.8076 L 16.7103,40.7034 L 16.9657,40.5976 L 17.2204,40.4902 L 17.4745,40.3812 L 17.7279,40.2706
 L 17.9805,40.1584 L 18.2325,40.0447 L 18.4838,39.9293 L 18.7343,39.8124 L 18.9841,39.6939 L 19.2331,39.5738
 L 19.4814,39.4522 L 19.7289,39.329 L 19.9756,39.2043 L 20.2215,39.078 L 20.4666,38.9502 L 20.711,38.8208
 L 20.9545,38.6899 L 21.1972,38.5575 L 21.439,38.4235 L 21.68,38.2881 L 21.9201,38.1511 L 22.1594,38.0126
 L 22.3978,37.8726 L 22.6353,37.7312 L 22.8719,37.5882 L 23.1077,37.4438 L 23.3425,37.2978 L 23.5764,37.1504
 L 23.8093,37.0016 L 24.0413,36.8512 L 24.2724,36.6994 L 24.5025,36.5462 L 24.7317,36.3915 L 24.9598,36.2354
 L 25.187,36.0779 L 25.4132,35.9189 L 25.6384,35.7585 L 25.8625,35.5967 L 26.0857,35.4335 L 26.3078,35.2689
 L 26.5289,35.103 L 26.7489,34.9356 L 26.9679,34.7668 L 27.1858,34.5967 L 27.4026,34.4252 L 27.6184,34.2523
 L 27.8331,34.0781 L 28.0466,33.9026 L 28.2591,33.7257 L 28.4705,33.5475 L 28.6807,33.3679 L 28.8898,33.1871
 L 29.0977,33.0049 L 29.3045,32.8214 L 29.5102,32.6366 L 29.7146,32.4506 L 29.9179,32.2632 L 30.1201,32.0746
 L 30.321,31.8847 L 30.5207,31.6936 L 30.7193,31.5012 L 30.9166,31.3076 L 31.1127,31.1127 L 31.3076,30.9166
 L 31.5012,30.7193 L 31.6936,30.5207 L 31.8847,30.321 L 32.0746,30.1201 L 32.2632,29.9179 L 32.4506,29.7146
 L 32.6366,29.5102 L 32.8214,29.3045 L 33.0049,29.0977 L 33.1871,28.8898 L 33.3679,28.6807 L 33.5475,28.4705
 L 33.7257,28.2591 L 33.9026,28.0466 L 34.0781,27.8331 L 34.2523,27.6184 L 34.4252,27.4026 L 34.5967,27.1858
 L 34.7668,26.9679 L 34.9356,26.7489 L 35.103,26.5289 L 35.2689,26.3078 L 35.4335,26.0857 L 35.5967,25.8625
 L 35.7585,25.6384 L 35.9189,25.4132 L 36.0779,25.187 L 36.2354,24.9598 L 36.3915,24.7317 L 36.5462,24.5025
 L 36.6994,24.2724 L 36.8512,24.0413 L 37.0016,23.8093 L 37.1504,23.5764 L 37.2978,23.3425 L 37.4438,23.1077
 L 37.5882,22.8719 L 37.7312,22.6353 L 37.8726,22.3978 L 38.0126,22.1594 L 38.1511,21.9201 L 38.2881,21.68
 L 38.4235,21.439 L 38.5575,21.1972 L 38.6899,20.9545 L 38.8208,20.711 L 38.9502,20.4666 L 39.078,20.2215
 L 39.2043,19.9756 L 39.329,19.7289 L 39.4522,19.4814 L 39.5738,19.2331 L 39.6939,18.9841 L 39.8124,18.7343
 L 39.9293,18.4838 L 40.0447,18.2325 L 40.1584,17.9805 L 40.2706,17.7279 L 40.3812,17.4745 L 40.4902,17.2204
 L 40.5976,16.9657 L 40.7034,16.7103 L 40.8076,16.4542 L 40.9102,16.1975 L 41.0111,15.9401 L 41.1105,15.6821
 L 41.2082,15.4235 L 41.3043,15.1643 L 41.3987,14.9045 L 41.4916,14.6441 L 41.5828,14.3831 L 41.6723,14.1215
 L 41.7602,13.8594 L 41.8465,13.5967 L 41.9311,13.3335 L 42.014,13.0698 L 42.0953,12.8056 L 42.175,12.5408
 L 42.2529,12.2756 L 42.3292,12.0099 L 42.4038,11.7437 L 42.4768,11.477 L 42.5481,11.2099 L 42.6176,10.9424
 L 42.6856,10.6744 L 42.7518,10.4059 L 42.8163,10.1371 L 42.8792,9.8679 L 42.9403,9.5983 L 42.9998,9.32831
 L 43.0576,9.05795 L 43.1136,8.78723 L 43.168,8.51617 L 43.2206,8.24477 L 43.2716,7.97305 L 43.3208,7.701
 L 43.3683,7.42867 L 43.4142,7.15602 L 43.4583,6.8831 L 43.5007,6.60992 L 43.5413,6.33647 L 43.5803,6.06276
 L 43.6175,5.78882 L 43.653,5.51465 L 43.6868,5.24026 L 43.7189,4.96567 L 43.7492,4.69089 L 43.7778,4.41591
 L 43.8047,4.14076 L 43.8299,3.86545 L 43.8533,3.58998 L 43.875,3.31438 L 43.8949,3.03864 L 43.9132,2.76277
 L 43.9297,2.4868 L 43.9444,2.21074 L 43.9574,1.93459 L 43.9687,1.65836 L 43.9783,1.38206 L 43.9861,1.10571
 L 43.9922,0.82933 L 43.9965,0.552902 L 43.9991,0.276443 L 44,-0 L 43.9991,-0.276443 L 43.9965,-0.552902
 L 43.9922,-0.82933 L 43.9861,-1.10571 L 43.9783,-1.38206 L 43.9687,-1.65836 L 43.9574,-1.93459 L 43.9444,-2.21074
 L 43.9297,-2.4868 L 43.9132,-2.76277 L 43.8949,-3.03864 L 43.875,-3.31438 L 43.8533,-3.58998 L 43.8299,-3.86545
 L 43.8047,-4.14076 L 43.7778,-4.41591 L 43.7492,-4.69089 L 43.7189,-4.96567 L 43.6868,-5.24026 L 43.653,-5.51465
 L 43.6175,-5.78882 L 43.5803,-6.06276 L 43.5413,-6.33647 L 43.5007,-6.60992 L 43.4583,-6.8831 L 43.4142,-7.15602
 L 43.3683,-7.42867 L 43.3208,-7.701 L 43.2716,-7.97305 L 43.2206,-8.24477 L 43.168,-8.51617 L 43.1136,-8.78723
 L 43.0576,-9.05795 L 42.9998,-9.32831 L 42.9403,-9.5983 L 42.8792,-9.8679 L 42.8163,-10.1371 L 42.7518,-10.4059
 L 42.6856,-10.6744 L 42.6176,-10.9424 L 42.5481,-11.2099 L 42.4768,-11.477 L 42.4038,-11.7437 L 42.3292,-12.0099
 L 42.2529,-12.2756 L 42.175,-12.5408 L 42.0953,-12.8056 L 42.014,-13.0698 L 41.9311,-13.3335 L 41.8465,-13.5967
 L 41.7602,-13.8594 L 41.6723,-14.1215 L 41.5828,-14.3831 L 41.4916,-14.6441 L 41.3987,-14.9045 L 41.3043,-15.1643
 L 41.2082,-15.4235 L 41.1105,-15.6821 L 41.0111,-15.9401 L 40.9102,-16.1975 L 40.8076,-16.4542 L 40.7034,-16.7103
 L 40.5976,-16.9657 L 40.4902,-17.2204 L 40.3812,-17.4745 L 40.2706,-17.7279 L 40.1584,-17.9805 L 40.0447,-18.2325
 L 39.9293,-18.4838 L 39.8124,-18.7343 L 39.6939,-18.9841 L 39.5738,-19.2331 L 39.4522,-19.4814 L 39.329,-19.7289
 L 39.2043,-19.9756 L 39.078,-20.2215 L 38.9502,-20.4666 L 38.8208,-20.711 L 38.6899,-20.9545 L 38.5575,-21.1972
 L 38.4235,-21.439 L 38.2881,-21.68 L 38.1511,-21.9201 L 38.0126,-22.1594 L 37.8726,-22.3978 L 37.7312,-22.6353
 L 37.5882,-22.8719 L 37.4438,-23.1077 L 37.2978,-23.3425 L 37.1504,-23.5764 L 37.0016,-23.8093 L 36.8512,-24.0413
 L 36.6994,-24.2724 L 36.5462,-24.5025 L 36.3915,-24.7317 L 36.2354,-24.9598 L 36.0779,-25.187 L 35.9189,-25.4132
 L 35.7585,-25.6384 L 35.5967,-25.8625 L 35.4335,-26.0857 L 35.2689,-26.3078 L 35.103,-26.5289 L 34.9356,-26.7489
 L 34.7668,-26.9679 L 34.5967,-27.1858 L 34.4252,-27.4026 L 34.2523,-27.6184 L 34.0781,-27.8331 L 33.9026,-28.0466
 L 33.7257,-28.2591 L 33.5475,-28.4705 L 33.3679,-28.6807 L 33.1871,-28.8898 L 33.0049,-29.0977 L 32.8214,-29.3045
 L 32.6366,-29.5102 L 32.4506,-29.7146 L 32.2632,-29.9179 L 32.0746,-30.1201 L 31.8847,-30.321 L 31.6936,-30.5207
 L 31.5012,-30.7193 L 31.3076,-30.9166 L 31.1127,-31.1127 L 30.9166,-31.3076 L 30.7193,-31.5012 L 30.5207,-31.6936
 L 30.321,-31.8847 L 30.1201,-32.0746 L 29.9179,-32.2632 L 29.7146,-32.4506 L 29.5102,-32.6366 L 29.3045,-32.8214
 L 29.0977,-33.0049 L 28.8898,-33.1871 L 28.6807,-33.3679 L 28.4705,-33.5475 L 28.2591,-33.7257 L 28.0466,-33.9026
 L 27.8331,-34.0781 L 27.6184,-34.2523 L 27.4026,-34.4252 L 27.1858,-34.5967 L 26.9679,-34.7668 L 26.7489,-34.9356
 L 26.5289,-35.103 L 26.3078,-35.2689 L 26.0857,-35.4335 L 25.8625,-35.5967 L 25.6384,-35.7585 L 25.4132,-35.9189
 L 25.187,-36.0779 L 24.9598,-36.2354 L 24.7317,-36.3915 L 24.5025,-36.5462 L 24.2724,-36.6994 L 24.0413,-36.8512
 L 23.8093,-37.0016 L 23.5764,-37.1504 L 23.3425,-37.2978 L 23.1077,-37.4438 L 22.8719,-37.5882 L 22.6353,-37.7312
 L 22.3978,-37.8726 L 22.1594,-38.0126 L 21.9201,-38.1511 L 21.68,-38.2881 L 21.439,-38.4235 L 21.1972,-38.5575
 L 20.9545,-38.6899 L 20.711,-38.8208 L 20.4666,-38.9502 L 20.2215,-39.078 L 19.9756,-39.2043 L 19.7289,-39.329
 L 19.4814,-39.4522 L 19.2331,-39.5738 L 18.9841,-39.6939 L 18.7343,-39.8124 L 18.4838,-39.9293 L 18.2325,-40.0447
 L 17.9805,-40.1584 L 17.7279,-40.2706 L 17.4745,-40.3812 L 17.2204,-40.4902 L 16.9657,-40.5976 L 16.7103,-40.7034
 L 16.4542,-40.8076 L 16.1975,-40.9102 L 15.9401,-41.0111 L 15.6821,-41.1105 L 15.4235,-41.2082 L 15.1643,-41.3043
 L 14.9045,-41.3987 L 14.6441,-41.4916 L 14.3831,-41.5828 L 14.1215,-41.6723 L 13.8594,-41.7602 L 13.5967,-41.8465
 L 13.3335,-41.9311 L 13.0698,-42.014 L 12.8056,-42.0953 L 12.5408,-42.175 L 12.2756,-42.2529 L 12.0099,-42.3292
 L 11.7437,-42.4038 L 11.477,-42.4768 L 11.2099,-42.5481 L 10.9424,-42.6176 L 10.6744,-42.6856 L 10.4059,-42.7518
 L 10.1371,-42.8163 L 9.8679,-42.8792 L 9.5983,-42.9403 L 9.32831,-42.9998 L 9.05795,-43.0576 L 8.78723,-43.1136
 L 8.51617,-43.168 L 8.24477,-43.2206 L 7.97305,-43.2716 L 7.701,-43.3208 L 7.42867,-43.3683 L 7.15602,-43.4142
 L 6.8831,-43.4583 L 6.60992,-43.5007 L 6.33647,-43.5413 L 6.06276,-43.5803 L 5.78882,-43.6175 L 5.51465,-43.653
 L 5.24026,-43.6868 L 4.96567,-43.7189 L 4.69089,-43.7492 L 4.41591,-43.7778 L 4.14076,-43.8047 L 3.86545,-43.8299
 L 3.58998,-43.8533 L 3.31438,-43.875 L 3.03864,-43.8949 L 2.76277,-43.9132 L 2.4868,-43.9297 L 2.21074,-43.9444
 L 1.93459,-43.9574 L 1.65836,-43.9687 L 1.38206,-43.9783 L 1.10571,-43.9861 L 0.82933,-43.9922 L 0.552902,-43.9965
 L 0.276443,-43.9991 L 0,-44 L -0.276443,-43.9991 L -0.552902,-43.9965 L -0.82933,-43.9922 L -1.10571,-43.9861
 L -1.38206,-43.9783 L -1.65836,-43.9687 L -1.93459,-43.9574 L -2.21074,-43.9444 L -2.4868,-43.9297 L -2.76277,-43.9132
 L -3.03864,-43.8949 L -3.31438,-43.875 L -3.58998,-43.8533 L -3.86545,-43.8299 L -4.14076,-43.8047 L -4.41591,-43.7778
 L -4.69089,-43.7492 L -4.96567,-43.7189 L -5.24026,-43.6868 L -5.51465,-43.653 L -5.78882,-43.6175 L -6.06276,-43.5803
 L -6.33647,-43.5413 L -6.60992,-43.5007 L -6.8831,-43.4583 L -7.15602,-43.4142 L -7.42867,-43.3683 L -7.701,-43.3208
 L -7.97305,-43.2716 L -8.24477,-43.2206 L -8.51617,-43.168 L -8.78723,-43.1136 L -9.05795,-43.0576 L -9.32831,-42.9998
 L -9.5983,-42.9403 L -9.8679,-42.8792 L -10.1371,-42.8163 L -10.4059,-42.7518 L -10.6744,-42.6856 L -10.9424,-42.6176
 L -11.2099,-42.5481 L -11.477,-42.4768 L -11.7437,-42.4038 L -12.0099,-42.3292 L -12.2756,-42.2529 L -12.5408,-42.175
 L -12.8056,-42.0953 L -13.0698,-42.014 L -13.3335,-41.9311 L -13.5967,-41.8465 L -13.8594,-41.7602 L -14.1215,-41.6723
 L -14.3831,-41.5828 L -14.6441,-41.4916 L -14.9045,-41.3987 L -15.1643,-41.3043 L -15.4235,-41.2082 L -15.6821,-41.1105
 L -15.9401,-41.0111 L -16.1975,-40.9102 L -16.4542,-40.8076 L -16.7103,-40.7034 L -16.9657,-40.5976 L -17.2204,-40.4902
 L -17.4745,-40.3812 L -17.7279,-40.2706 L -17.9805,-40.1584 L -18.2325,-40.0447 L -18.4838,-39.9293 L -18.7343,-39.8124
 L -18.9841,-39.6939 L -19.2331,-39.5738 L -19.4814,-39.4522 L -19.7289,-39.329 L -19.9756,-39.2043 L -20.2215,-39.078
 L -20.4666,-38.9502 L -20.711,-38.8208 L -20.9545,-38.6899 L -21.1972,-38.5575 L -21.439,-38.4235 L -21.68,-38.2881
 L -21.9201,-38.1511 L -22.1594,-38.0126 L -22.3978,-37.8726 L -22.6353,-37.7312 L -22.8719,-37.5882 L -23.1077,-37.4438
 L -23.3425,-37.2978 L -23.5764,-37.1504 L -23.8093,-37.0016 L -24.0413,-36.8512 L -24.2724,-36.6994 L -24.5025,-36.5462
 L -24.7317,-36.3915 L -24.9598,-36.2354 L -25.187,-36.0779 L -25.4132,-35.9189 L -25.6384,-35.7585 L -25.8625,-35.5967
 L -26.0857,-35.4335 L -26.3078,-35.2689 L -26.5289,-35.103 L -26.7489,-34.9356 L -26.9679,-34.7668 L -27.1858,-34.5967
 L -27.4026,-34.4252 L -27.6184,-34.2523 L -27.8331,-34.0781 L -28.0466,-33.9026 L -28.2591,-33.7257 L -28.4705,-33.5475
 L -28.6807,-33.3679 L -28.8898,-33.1871 L -29.0977,-33.0049 L -29.3045,-32.8214 L -29.5102,-32.6366 L -29.7146,-32.4506
 L -29.9179,-32.2632 L -30.1201,-32.0746 L -30.321,-31.8847 L -30.5207,-31.6936 L -30.7193,-31.5012 L -30.9166,-31.3076
 L -31.1127,-31.1127 L -31.3076,-30.9166 L -31.5012,-30.7193 L -31.6936,-30.5207 L -31.8847,-30.321 L -32.0746,-30.1201
 L -32.2632,-29.9179 L -32.4506,-29.7146 L -32.6366,-29.5102 L -32.8214,-29.3045 L -33.0049,-29.0977 L -33.1871,-28.8898
 L -33.3679,-28.6807 L -33.5475,-28.4705 L -33.7257,-28.2591 L -33.9026,-28.0466 L -34.0781,-27.8331 L -34.2523,-27.6184
 L -34.4252,-27.4026 L -34.5967,-27.1858 L -34.7668,-26.9679 L -34.9356,-26.7489 L -35.103,-26.5289 L -35.2689,-26.3078
 L -35.4335,-26.0857 L -35.5967,-25.8625 L -35.7585,-25.6384 L -35.9189,-25.4132 L -36.0779,-25.187 L -36.2354,-24.9598
 L -36.3915,-24.7317 L -36.5462,-24.5025 L -36.6994,-24.2724 L -36.8512,-24.0413 L -37.0016,-23.8093 L -37.1504,-23.5764
 L -37.2978,-23.3425 L -37.4438,-23.1077 L -37.5882,-22.8719 L -37.7312,-22.6353 L -37.8726,-22.3978 L -38.0126,-22.1594
 L -38.1511,-21.9201 L -38.2881,-21.68 L -38.4235,-21.439 L -38.5575,-21.1972 L -38.6899,-20.9545 L -38.8208,-20.711
 L -38.9502,-20.4666 L -39.078,-20.2215 L -39.2043,-19.9756 L -39.329,-19.7289 L -39.4522,-19.4814 L -39.5738,-19.2331
 L -39.6939,-18.9841 L -39.8124,-18.7343 L -39.9293,-18.4838 L -40.0447,-18.2325 L -40.1584,-17.9805 L -40.2706,-17.7279
 L -40.3812,-17.4745 L -40.4902,-17.2204 L -40.5976,-16.9657 L -40.7034,-16.7103 L -40.8076,-16.4542 L -40.9102,-16.1975
 L -41.0111,-15.9401 L -41.1105,-15.6821 L -41.2082,-15.4235 L -41.3043,-15.1643 L -41.3987,-14.9045 L -41.4916,-14.6441
 L -41.5828,-14.3831 L -41.6723,-14.1215 L -41.7602,-13.8594 L -41.8465,-13.5967 L -41.9311,-13.3335 L -42.014,-13.0698
 L -42.0953,-12.8056 L -42.175,-12.5408 L -42.2529,-12.2756 L -42.3292,-12.0099 L -42.4038,-11.7437 L -42.4768,-11.477
 L -42.5481,-11.2099 L -42.6176,-10.9424 L -42.6856,-10.6744 L -42.7518,-10.4059 L -42.8163,-10.1371 L -42.8792,-9.8679
 L -42.9403,-9.5983 L -42.9998,-9.32831 L -43.0576,-9.05795 L -43.1136,-8.78723 L -43.168,-8.51617 L -43.2206,-8.24477
 L -43.2716,-7.97305 L -43.3208,-7.701 L -43.3683,-7.42867 L -43.4142,-7.15602 L -43.4583,-6.8831 L -43.5007,-6.60992
 L -43.5413,-6.33647 L -43.5803,-6.06276 L -43.6175,-5.78882 L -43.653,-5.51465 L -43.6868,-5.24026 L -43.7189,-4.96567
 L -43.7492,-4.69089 L -43.7778,-4.41591 L -43.8047,-4.14076 L -43.8299,-3.86545 L -43.8533,-3.58998 L -43.875,-3.31438
 L -43.8949,-3.03864 L -43.9132,-2.76277 L -43.9297,-2.4868 L -43.9444,-2.21074 L -43.9574,-1.93459 L -43.9687,-1.65836
 L -43.9783,-1.38206 L -43.9861,-1.10571 L -43.9922,-0.82933 L -43.9965,-0.552902 L -43.9991,-0.276443 L -44,-0
 L -43.9991,0.276443 L -43.9965,0.552902 L -43.9922,0.82933 L -43.9861,1.10571 L -43.9783,1.38206 L -43.9687,1.65836
 L -43.9574,1.93459 L -43.9444,2.21074 L -43.9297,2.4868 L -43.9132,2.76277 L -43.8949,3.03864 L -43.875,3.31438
 L -43.8533,3.58998 L -43.8299,3.86545 L -43.8047,4.14076 L -43.7778,4.41591 L -43.7492,4.69089 L -43.7189,4.96567
 L -43.6868,5.24026 L -43.653,5.51465 L -43.6175,5.78882 L -43.5803,6.06276 L -43.5413,6.33647 L -43.5007,6.60992
 L -43.4583,6.8831 L -43.4142,7.15602 L -43.3683,7.42867 L -43.3208,7.701 L -43.2716,7.97305 L -43.2206,8.24477
 L -43.168,8.51617 L -43.1136,8.78723 L -43.0576,9.05795 L -42.9998,9.32831 L -42.9403,9.5983 L -42.8792,9.8679
 L -42.8163,10.1371 L -42.7518,10.4059 L -42.6856,10.6744 L -42.6176,10.9424 L -42.5481,11.2099 L -42.4768,11.477
 L -42.4038,11.7437 L -42.3292,12.0099 L -42.2529,12.2756 L -42.175,12.5408 L -42.0953,12.8056 L -42.014,13.0698
 L -41.9311,13.3335 L -41.8465,13.5967 L -41.7602,13.8594 L -41.6723,14.1215 L -41.5828,14.3831 L -41.4916,14.6441
 L -41.3987,14.9045 L -41.3043,15.1643 L -41.2082,15.4235 L -41.1105,15.6821 L -41.0111,15.9401 L -40.9102,16.1975
 L -40.8076,16.4542 L -40.7034,16.7103 L -40.5976,16.9657 L -40.4902,17.2204 L -40.3812,17.4745 L -40.2706,17.7279
 L -40.1584,17.9805 L -40.0447,18.2325 L -39.9293,18.4838 L -39.8124,18.7343 L -39.6939,18.9841 L -39.5738,19.2331
 L -39.4522,19.4814 L -39.329,19.7289 L -39.2043,19.9756 L -39.078,20.2215 L -38.9502,20.4666 L -38.8208,20.711
 L -38.6899,20.9545 L -38.5575,21.1972 L -38.4235,21.439 L -38.2881,21.68 L -38.1511,21.9201 L -38.0126,22.1594
 L -37.8726,22.3978 L -37.7312,22.6353 L -37.5882,22.8719 L -37.4438,23.1077 L -37.2978,23.3425 L -37.1504,23.5764
 L -37.0016,23.8093 L -36.8512,24.0413 L -36.6994,24.2724 L -36.5462,24.5025 L -36.3915,24.7317 L -36.2354,24.9598
 L -36.0779,25.187 L -35.9189,25.4132 L -35.7585,25.6384 L -35.5967,25.8625 L -35.4335,26.0857 L -35.2689,26.3078
 L -35.103,26.5289 L -34.9356,26.7489 L -34.7668,26.9679 L -34.5967,27.1858 L -34.4252,27.4026 L -34.2523,27.6184
 L -34.0781,27.8331 L -33.9026,28.0466 L -33.7257,28.2591 L -33.5475,28.4705 L -33.3679,28.6807 L -33.1871,28.8898
 L -33.0049,29.0977 L -32.8214,29.3045 L -32.6366,29.5102 L -32.4506,29.7146 L -32.2632,29.9179 L -32.0746,30.1201
 L -31.8847,30.321 L -31.6936,30.5207 L -31.5012,30.7193 L -31.3076,30.9166 L -31.1127,31.1127 L -30.9166,31.3076
 L -30.7193,31.5012 L -30.5207,31.6936 L -30.321,31.8847 L -30.1201,32.0746 L -29.9179,32.2632 L -29.7146,32.4506
 L -29.5102,32.6366 L -29.3045,32.8214 L -29.0977,33.0049 L -28.8898,33.1871 L -28.6807,33.3679 L -28.4705,33.5475
 L -28.2591,33.7257 L -28.0466,33.9026 L -27.8331,34.0781 L -27.6184,34.2523 L -27.4026,34.4252 L -27.1858,34.5967
 L -26.9679,34.7668 L -26.7489,34.9356 L -26.5289,35.103 L -26.3078,35.2689 L -26.0857,35.4335 L -25.8625,35.5967
 L -25.6384,35.7585 L -25.4132,35.9189 L -25.187,36.0779 L -24.9598,36.2354 L -24.7317,36.3915 L -24.5025,36.5462
 L -24.2724,36.6994 L -24.0413,36.8512 L -23.8093,37.0016 L -23.5764,37.1504 L -23.3425,37.2978 L -23.1077,37.4438
 L -22.8719,37.5882 L -22.6353,37.7312 L -22.3978,37.8726 L -22.1594,38.0126 L -21.9201,38.1511 L -21.68,38.2881
 L -21.439,38.4235 L -21.1972,38.5575 L -20.9545,38.6899 L -20.711,38.8208 L -20.4666,38.9502 L -20.2215,39.078
 L -19.9756,39.2043 L -19.7289,39.329 L -19.4814,39.4522 L -19.2331,39.5738 L -18.9841,39.6939 L -18.7343,39.8124
 L -18.4838,39.9293 L -18.2325,40.0447 L -17.9805,40.1584 L -17.7279,40.2706 L -17.4745,40.3812 L -17.2204,40.4902
 L -16.9657,40.5976 L -16.7103,40.7034 L -16.4542,40.8076 L -16.1975,40.9102 L -15.9401,41.0111 L -15.6821,41.1105
 L -15.4235,41.2082 L -15.1643,41.3043 L -14.9045,41.3987 L -14.6441,41.4916 L -14.3831,41.5828 L -14.1215,41.6723
 L -13.8594,41.7602 L -13.5967,41.8465 L -13.3335,41.9311 L -13.0698,42.014 L -12.8056,42.0953 L -12.5408,42.175
 L -12.2756,42.2529 L -12.0099,42.3292 L -11.7437,42.4038 L -11.477,42.4768 L -11.2099,42.5481 L -10.9424,42.6176
 L -10.6744,42.6856 L -10.4059,42.7518 L -10.1371,42.8163 L -9.8679,42.8792 L -9.5983,42.9403 L -9.32831,42.9998
 L -9.05795,43.0576 L -8.78723,43.1136 L -8.51617,43.168 L -8.24477,43.2206 L -7.97305,43.2716 L -7.701,43.3208
 L -7.42867,43.3683 L -7.15602,43.4142 L -6.8831,43.4583 L -6.60992,43.5007 L -6.33647,43.5413 L -6.06276,43.5803
 L -5.78882,43.6175 L -5.51465,43.653 L -5.24026,43.6868 L -4.96567,43.7189 L -4.69089,43.7492 L -4.41591,43.7778
 L -4.14076,43.8047 L -3.86545,43.8299 L -3.58998,43.8533 L -3.31438,43.875 L -3.03864,43.8949 L -2.76277,43.9132
 L -2.4868,43.9297 L -2.21074,43.9444 L -1.93459,43.9574 L -1.65836,43.9687 L -1.38206,43.9783 L -1.10571,43.9861
 L -0.82933,43.9922 L -0.552902,43.9965 L -0.276443,43.9991 L 0,44 z
M -0.163361,25.9995 L -0.326706,25.9979 L -0.490051,25.9954 L -0.653381,25.9918 L -0.816666,25.9872 L -0.979935,25.9815
 L -1.14316,25.9749 L -1.30635,25.9671 L -1.46947,25.9584 L -1.63255,25.9487 L -1.79555,25.9379 L -1.9585,25.9261
 L -2.12135,25.9133 L -2.28412,25.8995 L -2.44681,25.8846 L -2.60939,25.8687 L -2.77188,25.8518 L -2.93427,25.8339
 L -3.09651,25.8149 L -3.25865,25.795 L -3.42067,25.774 L -3.58253,25.752 L -3.74428,25.729 L -3.90585,25.7049
 L -4.06729,25.6799 L -4.22856,25.6538 L -4.38966,25.6268 L -4.5506,25.5987 L -4.71135,25.5696 L -4.8719,25.5395
 L -5.03227,25.5083 L -5.19246,25.4762 L -5.35242,25.4431 L -5.51218,25.409 L -5.67172,25.3738 L -5.83104,25.3377
 L -5.99011,25.3006 L -6.14897,25.2624 L -6.30757,25.2233 L -6.46593,25.1832 L -6.62404,25.142 L -6.78188,25.0999
 L -6.93944,25.0568 L -7.09674,25.0127 L -7.25375,24.9676 L -7.41049,24.9216 L -7.56694,24.8745 L -7.72307,24.8265
 L -7.87891,24.7775 L -8.03444,24.7275 L -8.18964,24.6765 L -8.34453,24.6245 L -8.49908,24.5716 L -8.65331,24.5177
 L -8.80717,24.4629 L -8.96071,24.4071 L -9.11389,24.3503 L -9.26671,24.2925 L -9.41916,24.2338 L -9.57123,24.1742
 L -9.72293,24.1136 L -9.87425,24.052 L -10.0252,23.9895 L -10.1757,23.926 L -10.3258,23.8616 L -10.4756,23.7963
 L -10.6249,23.73 L -10.7738,23.6628 L -10.9222,23.5946 L -11.0703,23.5255 L -11.2178,23.4555 L -11.365,23.3845
 L -11.5117,23.3127 L -11.658,23.2399 L -11.8037,23.1662 L -11.9491,23.0915 L -12.0939,23.016 L -12.2383,22.9396
 L -12.3822,22.8622 L -12.5256,22.784 L -12.6685,22.7048 L -12.8109,22.6248 L -12.9528,22.5438 L -13.0942,22.462
 L -13.2351,22.3793 L -13.3754,22.2957 L -13.5152,22.2112 L -13.6545,22.1259 L -13.7933,22.0396 L -13.9315,21.9525
 L -14.0691,21.8645 L -14.2062,21.7757 L -14.3428,21.686 L -14.4788,21.5955 L -14.6142,21.5041 L -14.749,21.4118
 L -14.8832,21.3187 L -15.0169,21.2248 L -15.1499,21.13 L -15.2824,21.0344 L -15.4143,20.938 L -15.5455,20.8407
 L -15.6762,20.7426 L -15.8062,20.6437 L -15.9356,20.544 L -16.0643,20.4435 L -16.1925,20.3421 L -16.32,20.24
 L -16.4468,20.1371 L -16.573,20.0333 L -16.6986,19.9288 L -16.8234,19.8235 L -16.9477,19.7174 L -17.0712,19.6105
 L -17.1941,19.5029 L -17.3163,19.3945 L -17.4378,19.2853 L -17.5586,19.1753 L -17.6788,19.0646 L -17.7982,18.9532
 L -17.9169,18.841 L -18.035,18.728 L -18.1523,18.6143 L -18.2689,18.4999 L -18.3848,18.3848 L -18.4999,18.2689
 L -18.6143,18.1523 L -18.728,18.035 L -18.841,17.9169 L -18.9532,17.7982 L -19.0646,17.6788 L -19.1753,17.5586
 L -19.2853,17.4378 L -19.3945,17.3163 L -19.5029,17.1941 L -19.6105,17.0712 L -19.7174,16.9477 L -19.8235,16.8234
 L -19.9288,16.6986 L -20.0333,16.573 L -20.1371,16.4468 L -20.24,16.32 L -20.3421,16.1925 L -20.4435,16.0643
 L -20.544,15.9356 L -20.6437,15.8062 L -20.7426,15.6762 L -20.8407,15.5455 L -20.938,15.4143 L -21.0344,15.2824
 L -21.13,15.1499 L -21.2248,15.0169 L -21.3187,14.8832 L -21.4118,14.749 L -21.5041,14.6142 L -21.5955,14.4788
 L -21.686,14.3428 L -21.7757,14.2062 L -21.8645,14.0691 L -21.9525,13.9315 L -22.0396,13.7933 L -22.1259,13.6545
 L -22.2112,13.5152 L -22.2957,13.3754 L -22.3793,13.2351 L -22.462,13.0942 L -22.5438,12.9528 L -22.6248,12.8109
 L -22.7048,12.6685 L -22.784,12.5256 L -22.8622,12.3822 L -22.9396,12.2383 L -23.016,12.0939 L -23.0915,11.9491
 L -23.1662,11.8037 L -23.2399,11.658 L -23.3127,11.5117 L -23.3845,11.365 L -23.4555,11.2178 L -23.5255,11.0703
 L -23.5946,10.9222 L -23.6628,10.7738 L -23.73,10.6249 L -23.7963,10.4756 L -23.8616,10.3258 L -23.926,10.1757
 L -23.9895,10.0252 L -24.052,9.87425 L -24.1136,9.72293 L -24.1742,9.57123 L -24.2338,9.41916 L -24.2925,9.26671
 L -24.3503,9.11389 L -24.4071,8.96071 L -24.4629,8.80717 L -24.5177,8.65331 L -24.5716,8.49908 L -24.6245,8.34453
 L -24.6765,8.18964 L -24.7275,8.03444 L -24.7775,7.87891 L -24.8265,7.72307 L -24.8745,7.56694 L -24.9216,7.41049
 L -24.9676,7.25375 L -25.0127,7.09674 L -25.0568,6.93944 L -25.0999,6.78188 L -25.142,6.62404 L -25.1832,6.46593
 L -25.2233,6.30757 L -25.2624,6.14897 L -25.3006,5.99011 L -25.3377,5.83104 L -25.3738,5.67172 L -25.409,5.51218
 L -25.4431,5.35242 L -25.4762,5.19246 L -25.5083,5.03227 L -25.5395,4.8719 L -25.5696,4.71135 L -25.5987,4.5506
 L -25.6268,4.38966 L -25.6538,4.22856 L -25.6799,4.06729 L -25.7049,3.90585 L -25.729,3.74428 L -25.752,3.58253
 L -25.774,3.42067 L -25.795,3.25865 L -25.8149,3.09651 L -25.8339,2.93427 L -25.8518,2.77188 L -25.8687,2.60939
 L -25.8846,2.44681 L -25.8995,2.28412 L -25.9133,2.12135 L -25.9261,1.9585 L -25.9379,1.79555 L -25.9487,1.63255
 L -25.9584,1.46947 L -25.9671,1.30635 L -25.9749,1.14316 L -25.9815,0.979935 L -25.9872,0.816666 L -25.9918,0.653381
 L -25.9954,0.490051 L -25.9979,0.326706 L -25.9995,0.163361 L -26,-0 L -25.9995,-0.163361 L -25.9979,-0.326706
 L -25.9954,-0.490051 L -25.9918,-0.653381 L -25.9872,-0.816666 L -25.9815,-0.979935 L -25.9749,-1.14316 L -25.9671,-1.30635
 L -25.9584,-1.46947 L -25.9487,-1.63255 L -25.9379,-1.79555 L -25.9261,-1.9585 L -25.9133,-2.12135 L -25.8995,-2.28412
 L -25.8846,-2.44681 L -25.8687,-2.60939 L -25.8518,-2.77188 L -25.8339,-2.93427 L -25.8149,-3.09651 L -25.795,-3.25865
 L -25.774,-3.42067 L -25.752,-3.58253 L -25.729,-3.74428 L -25.7049,-3.90585 L -25.6799,-4.06729 L -25.6538,-4.22856
 L -25.6268,-4.38966 L -25.5987,-4.5506 L -25.5696,-4.71135 L -25.5395,-4.8719 L -25.5083,-5.03227 L -25.4762,-5.19246
 L -25.4431,-5.35242 L -25.409,-5.51218 L -25.3738,-5.67172 L -25.3377,-5.83104 L -25.3006,-5.99011 L -25.2624,-6.14897
 L -25.2233,-6.30757 L -25.1832,-6.46593 L -25.142,-6.62404 L -25.0999,-6.78188 L -25.0568,-6.93944 L -25.0127,-7.09674
 L -24.9676,-7.25375 L -24.9216,-7.41049 L -24.8745,-7.56694 L -24.8265,-7.72307 L -24.7775,-7.87891 L -24.7275,-8.03444
 L -24.6765,-8.18964 L -24.6245,-8.34453 L -24.5716,-8.49908 L -24.5177,-8.65331 L -24.4629,-8.80717 L -24.4071,-8.96071
 L -24.3503,-9.11389 L -24.2925,-9.26671 L -24.2338,-9.41916 L -24.1742,-9.57123 L -24.1136,-9.72293 L -24.052,-9.87425
 L -23.9895,-10.0252 L -23.926,-10.1757 L -23.8616,-10.3258 L -23.7963,-10.4756 L -23.73,-10.6249 L -23.6628,-10.7738
 L -23.5946,-10.9222 L -23.5255,-11.0703 L -23.4555,-11.2178 L -23.3845,-11.365 L -23.3127,-11.5117 L -23.2399,-11.658
 L -23.1662,-11.8037 L -23.0915,-11.9491 L -23.016,-12.0939 L -22.9396,-12.2383 L -22.8622,-12.3822 L -22.784,-12.5256
 L -22.7048,-12.6685 L -22.6248,-12.8109 L -22.5438,-12.9528 L -22.462,-13.0942 L -22.3793,-13.2351 L -22.2957,-13.3754
 L -22.2112,-13.5152 L -22.1259,-13.6545 L -22.0396,-13.7933 L -21.9525,-13.9315 L -21.8645,-14.0691 L -21.7757,-14.2062
 L -21.686,-14.3428 L -21.5955,-14.4788 L -21.5041,-14.6142 L -21.4118,-14.749 L -21.3187,-14.8832 L -21.2248,-15.0169
 L -21.13,-15.1499 L -21.0344,-15.2824 L -20.938,-15.4143 L -20.8407,-15.5455 L -20.7426,-15.6762 L -20.6437,-15.8062
 L -20.544,-15.9356 L -20.4435,-16.0643 L -20.3421,-16.1925 L -20.24,-16.32 L -20.1371,-16.4468 L -20.0333,-16.573
 L -19.9288,-16.6986 L -19.8235,-16.8234 L -19.7174,-16.9477 L -19.6105,-17.0712 L -19.5029,-17.1941 L -19.3945,-17.3163
 L -19.2853,-17.4378 L -19.1753,-17.5586 L -19.0646,-17.6788 L -18.9532,-17.7982 L -18.841,-17.9169 L -18.728,-18.035
 L -18.6143,-18.1523 L -18.4999,-18.2689 L -18.3848,-18.3848 L -18.2689,-18.4999 L -18.1523,-18.6143 L -18.035,-18.728
 L -17.9169,-18.841 L -17.7982,-18.9532 L -17.6788,-19.0646 L -17.5586,-19.1753 L -17.4378,-19.2853 L -17.3163,-19.3945
 L -17.1941,-19.5029 L -17.0712,-19.6105 L -16.9477,-19.7174 L -16.8234,-19.8235 L -16.6986,-19.9288 L -16.573,-20.0333
 L -16.4468,-20.1371 L -16.32,-20.24 L -16.1925,-20.3421 L -16.0643,-20.4435 L -15.9356,-20.544 L -15.8062,-20.6437
 L -15.6762,-20.7426 L -15.5455,-20.8407 L -15.4143,-20.938 L -15.2824,-21.0344 L -15.1499,-21.13 L -15.0169,-21.2248
 L -14.8832,-21.3187 L -14.749,-21.4118 L -14.6142,-21.5041 L -14.4788,-21.5955 L -14.3428,-21.686 L -14.2062,-21.7757
 L -14.0691,-21.8645 L -13.9315,-21.9525 L -13.7933,-22.0396 L -13.6545,-22.1259 L -13.5152,-22.2112 L -13.3754,-22.2957
 L -13.2351,-22.3793 L -13.0942,-22.462 L -12.9528,-22.5438 L -12.8109,-22.6248 L -12.6685,-22.7048 L -12.5256,-22.784
 L -12.3822,-22.8622 L -12.2383,-22.9396 L -12.0939,-23.016 L -11.9491,-23.0915 L -11.8037,-23.1662 L -11.658,-23.2399
 L -11.5117,-23.3127 L -11.365,-23.3845 L -11.2178,-23.4555 L -11.0703,-23.5255 L -10.9222,-23.5946 L -10.7738,-23.6628
 L -10.6249,-23.73 L -10.4756,-23.7963 L -10.3258,-23.8616 L -10.1757,-23.926 L -10.0252,-23.9895 L -9.87425,-24.052
 L -9.72293,-24.1136 L -9.57123,-24.1742 L -9.41916,-24.2338 L -9.26671,-24.2925 L -9.11389,-24.3503 L -8.96071,-24.4071
 L -8.80717,-24.4629 L -8.65331,-24.5177 L -8.49908,-24.5716 L -8.34453,-24.6245 L -8.18964,-24.6765 L -8.03444,-24.7275
 L -7.87891,-24.7775 L -7.72307,-24.8265 L -7.56694,-24.8745 L -7.41049,-24.9216 L -7.25375,-24.9676 L -7.09674,-25.0127
 L -6.93944,-25.0568 L -6.78188,-25.0999 L -6.62404,-25.142 L -6.46593,-25.1832 L -6.30757,-25.2233 L -6.14897,-25.2624
 L -5.99011,-25.3006 L -5.83104,-25.3377 L -5.67172,-25.3738 L -5.51218,-25.409 L -5.35242,-25.4431 L -5.19246,-25.4762
 L -5.03227,-25.5083 L -4.8719,-25.5395 L -4.71135,-25.5696 L -4.5506,-25.5987 L -4.38966,-25.6268 L -4.22856,-25.6538
 L -4.06729,-25.6799 L -3.90585,-25.7049 L -3.74428,-25.729 L -3.58253,-25.752 L -3.42067,-25.774 L -3.25865,-25.795
 L -3.09651,-25.8149 L -2.93427,-25.8339 L -2.77188,-25.8518 L -2.60939,-25.8687 L -2.44681,-25.8846 L -2.28412,-25.8995
 L -2.12135,-25.9133 L -1.9585,-25.9261 L -1.79555,-25.9379 L -1.63255,-25.9487 L -1.46947,-25.9584 L -1.30635,-25.9671
 L -1.14316,-25.9749 L -0.979935,-25.9815 L -0.816666,-25.9872 L -0.653381,-25.9918 L -0.490051,-25.9954 L -0.326706,-25.9979
 L -0.163361,-25.9995 L 0,-26 L 0.163361,-25.9995 L 0.326706,-25.9979 L 0.490051,-25.9954 L 0.653381,-25.9918
 L 0.816666,-25.9872 L 0.979935,-25.9815 L 1.14316,-25.9749 L 1.30635,-25.9671 L 1.46947,-25.9584 L 1.63255,-25.9487
 L 1.79555,-25.9379 L 1.9585,-25.9261 L 2.12135,-25.9133 L 2.28412,-25.8995 L 2.44681,-25.8846 L 2.60939,-25.8687
 L 2.77188,-25.8518 L 2.93427,-25.8339 L 3.09651,-25.8149 L 3.25865,-25.795 L 3.42067,-25.774 L 3.58253,-25.752
 L 3.74428,-25.729 L 3.90585,-25.7049 L 4.06729,-25.6799 L 4.22856,-25.6538 L 4.38966,-25.6268 L 4.5506,-25.5987
 L 4.71135,-25.5696 L 4.8719,-25.5395 L 5.03227,-25.5083 L 5.19246,-25.4762 L 5.35242,-25.4431 L 5.51218,-25.409
 L 5.67172,-25.3738 L 5.83104,-25.3377 L 5.99011,-25.3006 L 6.14897,-25.2624 L 6.30757,-25.2233 L 6.46593,-25.1832
 L 6.62404,-25.142 L 6.78188,-25.0999 L 6.93944,-25.0568 L 7.09674,-25.0127 L 7.25375,-24.9676 L 7.41049,-24.9216
 L 7.56694,-24.8745 L 7.72307,-24.8265 L 7.87891,-24.7775 L 8.03444,-24.7275 L 8.18964,-24.6765 L 8.34453,-24.6245
 L 8.49908,-24.5716 L 8.65331,-24.5177 L 8.80717,-24.4629 L 8.96071,-24.4071 L 9.11389,-24.3503 L 9.26671,-24.2925
 L 9.41916,-24.2338 L 9.57123,-24.1742 L 9.72293,-24.1136 L 9.87425,-24.052 L 10.0252,-23.9895 L 10.1757,-23.926
 L 10.3258,-23.8616 L 10.4756,-23.7963 L 10.6249,-23.73 L 10.7738,-23.6628 L 10.9222,-23.5946 L 11.0703,-23.5255
 L 11.2178,-23.4555 L 11.365,-23.3845 L 11.5117,-23.3127 L 11.658,-23.2399 L 11.8037,-23.1662 L 11.9491,-23.0915
 L 12.0939,-23.016 L 12.2383,-22.9396 L 12.3822,-22.8622 L 12.5256,-22.784 L 12.6685,-22.7048 L 12.8109,-22.6248
 L 12.9528,-22.5438 L 13.0942,-22.462 L 13.2351,-22.3793 L 13.3754,-22.2957 L 13.5152,-22.2112 L 13.6545,-22.1259
 L 13.7933,-22.0396 L 13.9315,-21.9525 L 14.0691,-21.8645 L 14.2062,-21.7757 L 14.3428,-21.686 L 14.4788,-21.5955
 L 14.6142,-21.5041 L 14.749,-21.4118 L 14.8832,-21.3187 L 15.0169,-21.2248 L 15.1499,-21.13 L 15.2824,-21.0344
 L 15.4143,-20.938 L 15.5455,-20.8407 L 15.6762,-20.7426 L 15.8062,-20.6437 L 15.9356,-20.544 L 16.0643,-20.4435
 L 16.1925,-20.3421 L 16.32,-20.24 L 16.4468,-20.1371 L 16.573,-20.0333 L 16.6986,-19.9288 L 16.8234,-19.8235
 L 16.9477,-19.7174 L 17.0712,-19.6105 L 17.1941,-19.5029 L 17.3163,-19.3945 L 17.4378,-19.2853 L 17.5586,-19.1753
 L 17.6788,-19.0646 L 17.7982,-18.9532 L 17.9169,-18.841 L 18.035,-18.728 L 18.1523,-18.6143 L 18.2689,-18.4999
 L 18.3848,-18.3848 L 18.4999,-18.2689 L 18.6143,-18.1523 L 18.728,-18.035 L 18.841,-17.9169 L 18.9532,-17.7982
 L 19.0646,-17.6788 L 19.1753,-17.5586 L 19.2853,-17.4378 L 19.3945,-17.3163 L 19.5029,-17.1941 L 19.6105,-17.0712
 L 19.7174,-16.9477 L 19.8235,-16.8234 L 19.9288,-16.6986 L 20.0333,-16.573 L 20.1371,-16.4468 L 20.24,-16.32
 L 20.3421,-16.1925 L 20.4435,-16.0643 L 20.544,-15.9356 L 20.6437,-15.8062 L 20.7426,-15.6762 L 20.8407,-15.5455
 L 20.938,-15.4143 L 21.0344,-15.2824 L 21.13,-15.1499 L 21.2248,-15.0169 L 21.3187,-14.8832 L 21.4118,-14.749
 L 21.5041,-14.6142 L 21.5955,-14.4788 L 21.686,-14.3428 L 21.7757,-14.2062 L 21.8645,-14.0691 L 21.9525,-13.9315
 L 22.0396,-13.7933 L 22.1259,-13.6545 L 22.2112,-13.5152 L 22.2957,-13.3754 L 22.3793,-13.2351 L 22.462,-13.0942
 L 22.5438,-12.9528 L 22.6248,-12.8109 L 22.7048,-12.6685 L 22.784,-12.5256 L 22.8622,-12.3822 L 22.9396,-12.2383
 L 23.016,-12.0939 L 23.0915,-11.9491 L 23.1662,-11.8037 L 23.2399,-11.658 L 23.3127,-11.5117 L 23.3845,-11.365
 L 23.4555,-11.2178 L 23.5255,-11.0703 L 23.5946,-10.9222 L 23.6628,-10.7738 L 23.73,-10.6249 L 23.7963,-10.4756
 L 23.8616,-10.3258 L 23.926,-10.1757 L 23.9895,-10.0252 L 24.052,-9.87425 L 24.1136,-9.72293 L 24.1742,-9.57123
 L 24.2338,-9.41916 L 24.2925,-9.26671 L 24.3503,-9.11389 L 24.4071,-8.96071 L 24.4629,-8.80717 L 24.5177,-8.65331
 L 24.5716,-8.49908 L 24.6245,-8.34453 L 24.6765,-8.18964 L 24.7275,-8.03444 L 24.7775,-7.87891 L 24.8265,-7.72307
 L 24.8745,-7.56694 L 24.9216,-7.41049 L 24.9676,-7.25375 L 25.0127,-7.09674 L 25.0568,-6.93944 L 25.0999,-6.78188
 L 25.142,-6.62404 L 25.1832,-6.46593 L 25.2233,-6.30757 L 25.2624,-6.14897 L 25.3006,-5.99011 L 25.3377,-5.83104
 L 25.3738,-5.67172 L 25.409,-5.51218 L 25.4431,-5.35242 L 25.4762,-5.19246 L 25.5083,-5.03227 L 25.5395,-4.8719
 L 25.5696,-4.71135 L 25.5987,-4.5506 L 25.6268,-4.38966 L 25.6538,-4.22856 L 25.6799,-4.06729 L 25.7049,-3.90585
 L 25.729,-3.74428 L 25.752,-3.58253 L 25.774,-3.42067 L 25.795,-3.25865 L 25.8149,-3.09651 L 25.8339,-2.93427
 L 25.8518,-2.77188 L 25.8687,-2.60939 L 25.8846,-2.44681 L 25.8995,-2.28412 L 25.9133,-2.12135 L 25.9261,-1.9585
 L 25.9379,-1.79555 L 25.9487,-1.63255 L 25.9584,-1.46947 L 25.9671,-1.30635 L 25.9749,-1.14316 L 25.9815,-0.979935
 L 25.9872,-0.816666 L 25.9918,-0.653381 L 25.9954,-0.490051 L 25.9979,-0.326706 L 25.9995,-0.163361 L 26,-0
 L 25.9995,0.163361 L 25.9979,0.326706 L 25.9954,0.490051 L 25.9918,0.653381 L 25.9872,0.816666 L 25.9815,0.979935
 L 25.9749,1.14316 L 25.9671,1.30635 L 25.9584,1.46947 L 25.9487,1.63255 L 25.9379,1.79555 L 25.9261,1.9585
 L 25.9133,2.12135 L 25.8995,2.28412 L 25.8846,2.44681 L 25.8687,2.60939 L 25.8518,2.77188 L 25.8339,2.93427
 L 25.8149,3.09651 L 25.795,3.25865 L 25.774,3.42067 L 25.752,3.58253 L 25.729,3.74428 L 25.7049,3.90585
 L 25.6799,4.06729 L 25.6538,4.22856 L 25.6268,4.38966 L 25.5987,4.5506 L 25.5696,4.71135 L 25.5395,4.8719
 L 25.5083,5.03227 L 25.4762,5.19246 L 25.4431,5.35242 L 25.409,5.51218 L 25.3738,5.67172 L 25.3377,5.83104
 L 25.3006,5.99011 L 25.2624,6.14897 L 25.2233,6.30757 L 25.1832,6.46593 L 25.142,6.62404 L 25.0999,6.78188
 L 25.0568,6.93944 L 25.0127,7.09674 L 24.9676,7.25375 L 24.9216,7.41049 L 24.8745,7.56694 L 24.8265,7.72307
 L 24.7775,7.87891 L 24.7275,8.03444 L 24.6765,8.18964 L 24.6245,8.34453 L 24.5716,8.49908 L 24.5177,8.65331
 L 24.4629,8.80717 L 24.4071,8.96071 L 24.3503,9.11389 L 24.2925,9.26671 L 24.2338,9.41916 L 24.1742,9.57123
 L 24.1136,9.72293 L 24.052,9.87425 L 23.9895,10.0252 L 23.926,10.1757 L 23.8616,10.3258 L 23.7963,10.4756
 L 23.73,10.6249 L 23.6628,10.7738 L 23.5946,10.9222 L 23.5255,11.0703 L 23.4555,11.2178 L 23.3845,11.365
 L 23.3127,11.5117 L 23.2399,11.658 L 23.1662,11.8037 L 23.0915,11.9491 L 23.016,12.0939 L 22.9396,12.2383
 L 22.8622,12.3822 L 22.784,12.5256 L 22.7048,12.6685 L 22.6248,12.8109 L 22.5438,12.9528 L 22.462,13.0942
 L 22.3793,13.2351 L 22.2957,13.3754 L 22.2112,13.5152 L 22.1259,13.6545 L 22.0396,13.7933 L 21.9525,13.9315
 L 21.8645,14.0691 L 21.7757,14.2062 L 21.686,14.3428 L 21.5955,14.4788 L 21.5041,14.6142 L 21.4118,14.749
 L 21.3187,14.8832 L 21.2248,15.0169 L 21.13,15.1499 L 21.0344,15.2824 L 20.938,15.4143 L 20.8407,15.5455
 L 20.7426,15.6762 L 20.6437,15.8062 L 20.544,15.9356 L 20.4435,16.0643 L 20.3421,16.1925 L 20.24,16.32
 L 20.1371,16.4468 L 20.0333,16.573 L 19.9288,16.6986 L 19.8235,16.8234 L 19.7174,16.9477 L 19.6105,17.0712
 L 19.5029,17.1941 L 19.3945,17.3163 L 19.2853,17.4378 L 19.1753,17.5586 L 19.0646,17.6788 L 18.9532,17.7982
 L 18.841,17.9169 L 18.728,18.035 L 18.6143,18.1523 L 18.4999,18.2689 L 18.3848,18.3848 L 18.2689,18.4999
 L 18.1523,18.6143 L 18.035,18.728 L 17.9169,18.841 L 17.7982,18.9532 L 17.6788,19.0646 L 17.5586,19.1753
 L 17.4378,19.2853 L 17.3163,19.3945 L 17.1941,19.5029 L 17.0712,19.6105 L 16.9477,19.7174 L 16.8234,19.8235
 L 16.6986,19.9288 L 16.573,20.0333 L 16.4468,20.1371 L 16.32,20.24 L 16.1925,20.3421 L 16.0643,20.4435
 L 15.9356,20.544 L 15.8062,20.6437 L 15.6762,20.7426 L 15.5455,20.8407 L 15.4143,20.938 L 15.2824,21.0344
 L 15.1499,21.13 L 15.0169,21.2248 L 14.8832,21.3187 L 14.749,21.4118 L 14.6142,21.5041 L 14.4788,21.5955
 L 14.3428,21.686 L 14.2062,21.7757 L 14.0691,21.8645 L 13.9315,21.9525 L 13.7933,22.0396 L 13.6545,22.1259
 L 13.5152,22.2112 L 13.3754,22.2957 L 13.2351,22.3793 L 13.0942,22.462 L 12.9528,22.5438 L 12.8109,22.6248
 L 12.6685,22.7048 L 12.5256,22.784 L 12.3822,22.8622 L 12.2383,22.9396 L 12.0939,23.016 L 11.9491,23.0915
 L 11.8037,23.1662 L 11.658,23.2399 L 11.5117,23.3127 L 11.365,23.3845 L 11.2178,23.4555 L 11.0703,23.5255
 L 10.9222,23.5946 L 10.7738,23.6628 L 10.6249,23.73 L 10.4756,23.7963 L 10.3258,23.8616 L 10.1757,23.926
 L 10.0252,23.9895 L 9.87425,24.052 L 9.72293,24.1136 L 9.57123,24.1742 L 9.41916,24.2338 L 9.26671,24.2925
 L 9.11389,24.3503 L 8.96071,24.4071 L 8.80717,24.4629 L 8.65331,24.5177 L 8.49908,24.5716 L 8.34453,24.6245
 L 8.18964,24.6765 L 8.03444,24.7275 L 7.87891,24.7775 L 7.72307,24.8265 L 7.56694,24.8745 L 7.41049,24.9216
 L 7.25375,24.9676 L 7.09674,25.0127 L 6.93944,25.0568 L 6.78188,25.0999 L 6.62404,25.142 L 6.46593,25.1832
 L 6.30757,25.2233 L 6.14897,25.2624 L 5.99011,25.3006 L 5.83104,25.3377 L 5.67172,25.3738 L 5.51218,25.409
 L 5.35242,25.4431 L 5.19246,25.4762 L 5.03227,25.5083 L 4.8719,25.5395 L 4.71135,25.5696 L 4.5506,25.5987
 L 4.38966,25.6268 L 4.22856,25.6538 L 4.06729,25.6799 L 3.90585,25.7049 L 3.74428,25.729 L 3.58253,25.752
 L 3.42067,25.774 L 3.25865,25.795 L 3.09651,25.8149 L 2.93427,25.8339 L 2.77188,25.8518 L 2.60939,25.8687
 L 2.44681,25.8846 L 2.28412,25.8995 L 2.12135,25.9133 L 1.9585,25.9261 L 1.79555,25.9379 L 1.63255,25.9487
 L 1.46947,25.9584 L 1.30635,25.9671 L 1.14316,25.9749 L 0.979935,25.9815 L 0.816666,25.9872 L 0.653381,25.9918
 L 0.490051,25.9954 L 0.326706,25.9979 L 0.163361,25.9995 L 0,26 z
" fill="red"/>
</svg>
